<svg width="23" height="23" viewBox="0 0 23 23" fill="none" xmlns="http://www.w3.org/2000/svg">
<mask id="mask0_244_9485" style="mask-type:alpha" maskUnits="userSpaceOnUse" x="0" y="0" width="23" height="23">
<rect width="23" height="23" fill="#D9D9D9"/>
</mask>
<g mask="url(#mask0_244_9485)">
<path d="M11.4997 3.83301C13.64 3.83301 15.4528 4.57572 16.9382 6.06113C18.4236 7.54655 19.1663 9.3594 19.1663 11.4997C19.1663 13.64 18.4236 15.4528 16.9382 16.9382C15.4528 18.4236 13.64 19.1663 11.4997 19.1663C9.3594 19.1663 7.54655 18.4236 6.06113 16.9382C4.57572 15.4528 3.83301 13.64 3.83301 11.4997C3.83301 9.3594 4.57572 7.54655 6.06113 6.06113C7.54655 4.57572 9.3594 3.83301 11.4997 3.83301ZM11.4997 17.2497C13.0969 17.2497 14.4545 16.6906 15.5726 15.5726C16.6906 14.4545 17.2497 13.0969 17.2497 11.4997C17.2497 9.90245 16.6906 8.54481 15.5726 7.42676C14.4545 6.3087 13.0969 5.74967 11.4997 5.74967C9.90245 5.74967 8.54481 6.3087 7.42676 7.42676C6.3087 8.54481 5.74967 9.90245 5.74967 11.4997C5.74967 13.0969 6.3087 14.4545 7.42676 15.5726C8.54481 16.6906 9.90245 17.2497 11.4997 17.2497ZM11.4997 14.8538C12.2663 14.8538 12.9531 14.6342 13.5601 14.195C14.167 13.7557 14.5983 13.1768 14.8538 12.458H8.14551C8.40106 13.1768 8.83231 13.7557 9.43926 14.195C10.0462 14.6342 10.733 14.8538 11.4997 14.8538ZM8.14551 9.58301C8.14551 9.85454 8.23735 10.0821 8.42103 10.2658C8.60471 10.4495 8.83231 10.5413 9.10384 10.5413C9.37537 10.5413 9.60297 10.4495 9.78665 10.2658C9.97033 10.0821 10.0622 9.85454 10.0622 9.58301C10.0622 9.31148 9.97033 9.08388 9.78665 8.9002C9.60297 8.71651 9.37537 8.62467 9.10384 8.62467C8.83231 8.62467 8.60471 8.71651 8.42103 8.9002C8.23735 9.08388 8.14551 9.31148 8.14551 9.58301ZM12.9372 9.58301C12.9372 9.85454 13.029 10.0821 13.2127 10.2658C13.3964 10.4495 13.624 10.5413 13.8955 10.5413C14.167 10.5413 14.3946 10.4495 14.5783 10.2658C14.762 10.0821 14.8538 9.85454 14.8538 9.58301C14.8538 9.31148 14.762 9.08388 14.5783 8.9002C14.3946 8.71651 14.167 8.62467 13.8955 8.62467C13.624 8.62467 13.3964 8.71651 13.2127 8.9002C13.029 9.08388 12.9372 9.31148 12.9372 9.58301ZM0.958008 5.74967V2.87467C0.958008 2.34759 1.14568 1.89638 1.52103 1.52103C1.89638 1.14568 2.34759 0.958008 2.87467 0.958008H5.74967V2.87467H2.87467V5.74967H0.958008ZM5.74967 22.0413H2.87467C2.34759 22.0413 1.89638 21.8537 1.52103 21.4783C1.14568 21.103 0.958008 20.6518 0.958008 20.1247V17.2497H2.87467V20.1247H5.74967V22.0413ZM17.2497 22.0413V20.1247H20.1247V17.2497H22.0413V20.1247C22.0413 20.6518 21.8537 21.103 21.4783 21.4783C21.103 21.8537 20.6518 22.0413 20.1247 22.0413H17.2497ZM20.1247 5.74967V2.87467H17.2497V0.958008H20.1247C20.6518 0.958008 21.103 1.14568 21.4783 1.52103C21.8537 1.89638 22.0413 2.34759 22.0413 2.87467V5.74967H20.1247Z" fill="#EF4E5E"/>
</g>
</svg>
